<svg width="210" height="48" viewBox="0 0 210 48" fill="none" xmlns="http://www.w3.org/2000/svg">
<path d="M99.9149 26.9018C99.2756 33.1734 94.3566 37.9444 87.0699 37.9444C79.1084 37.9444 74 32.0842 74 24.8744C74 17.6647 79.1084 11.6536 87.0699 11.6536C94.1672 11.6536 99.1247 16.3861 99.8379 22.4327H93.4155C92.7022 19.6536 90.4114 17.6617 86.993 17.7387C82.7103 17.8156 80.3071 21.0061 80.3071 24.8004C80.3071 28.5947 82.6718 31.8622 87.0669 31.8622C90.4084 31.8622 92.8886 29.9473 93.5634 26.9048H99.9119L99.9149 26.9018Z" fill="white"/>
<path d="M120.952 37.3785L119.188 32.7229H109.424L107.696 37.3785H100.936L110.963 12.2153H117.91L127.976 37.3785H120.952ZM111.413 27.4636H117.196L114.266 19.801L111.413 27.4636Z" fill="white"/>
<path d="M149.303 12.2153V18.2235H141.155V37.3785H134.958V18.2235H126.807V12.2153H149.303Z" fill="white"/>
<path d="M152.813 37.3785V12.2153H172.418V18.2235H159.011V21.8284H170.542V27.4606H159.011V31.3674H172.418V37.3755H152.813V37.3785Z" fill="white"/>
<path d="M195.045 24.2701C197.223 25.0574 199.176 27.0107 199.176 30.1302C199.176 34.4129 195.684 37.3785 191.475 37.3785H177.506V12.2153H191.026C195.231 12.2153 198.502 14.8435 198.502 18.8628C198.502 21.192 197.111 23.1809 195.045 24.1221V24.273V24.2701ZM183.703 17.7351V22.2042H189.788C191.253 22.2042 192.156 21.0411 192.156 19.9519C192.156 18.8628 191.292 17.7351 189.788 17.7351H183.703ZM190.315 31.8942C191.819 31.8942 192.831 30.6541 192.831 29.4525C192.831 28.3633 191.854 27.2742 190.315 27.2742H183.703V31.8942H190.315Z" fill="white"/>
<path d="M203.802 12.2153H210V37.3785H203.802V12.2153Z" fill="white"/>
<path d="M53.835 4.39651C53.7692 3.45221 53.6834 2.50973 53.5811 1.56725C53.4971 0.789384 52.7189 0.811092 52.1289 1.00284C50.9379 1.38635 49.8438 2.2022 48.9104 2.99454C47.6171 4.0944 46.3384 5.21236 45.0415 6.30499C44.4077 6.83864 43.7702 7.36686 43.1235 7.88242C43.0486 7.94212 42.9756 8.00001 42.9007 8.05971C42.634 8.25869 42.3691 8.46311 42.0988 8.65848C41.4777 9.10711 40.7836 9.48881 40.1698 9.94829C40.0913 9.99351 40.0128 10.0387 39.9342 10.084C39.5981 10.2703 39.2583 10.4512 38.9149 10.6212C38.7761 10.69 38.6355 10.7569 38.4948 10.8238C38.208 10.9378 37.9231 11.05 37.6308 11.1513C37.0043 11.3665 36.3649 11.5366 35.7146 11.6668C33.9446 11.8911 32.1874 11.7157 30.4996 11.135C25.5238 9.1053 22.1098 4.40917 19.094 0.208699C18.683 -0.36475 17.176 0.409496 16.8837 0.557833C15.6288 1.20364 14.3812 2.24743 13.4058 3.24056C12.3956 4.26807 11.338 5.38964 10.6969 6.68488C10.3863 7.31078 9.86391 8.20442 10.3443 8.87375C13.5428 13.3311 17.092 18.0779 22.4422 20.0678C28.6346 22.3706 35.1319 18.7689 40.0347 15.2161C41.6257 14.0619 43.1564 12.8391 44.6634 11.5854C45.0086 16.1242 44.9228 20.6991 44.194 25.1962C43.8378 27.15 43.361 29.082 42.7144 30.9615C42.5554 31.421 42.3874 31.8786 42.2102 32.3327C42.1225 32.5552 42.033 32.7777 41.9399 32.9984C41.9234 33.0382 41.9052 33.078 41.8869 33.1196C41.5106 33.9246 41.0996 34.7133 40.6484 35.4803C40.632 35.5093 40.6137 35.5364 40.5973 35.5636C40.59 35.5726 40.5845 35.5835 40.5772 35.5925C40.3927 35.8675 40.2009 36.137 40.0054 36.4029C39.9506 36.4699 39.894 36.535 39.8374 36.6019C39.8191 36.6182 39.799 36.6327 39.7808 36.6489C39.6346 36.7521 39.4867 36.8534 39.3369 36.9529C39.1908 37.0361 39.0465 37.1193 38.8985 37.1971C38.6939 37.3056 38.4875 37.4105 38.2793 37.5118C38.2172 37.5426 38.1313 37.5806 38.0436 37.6186C37.7148 37.7506 37.3824 37.8773 37.0463 37.9912C36.1896 38.2807 35.3146 38.505 34.4269 38.675C31.1699 39.1634 27.8363 38.9409 24.7292 37.8284C19.7187 35.8186 15.8882 31.7502 13.3017 27.1282C12.5728 25.824 11.9408 24.4708 11.3892 23.0833C9.96255 19.2845 9.14786 15.245 9.13873 11.1874C9.1369 10.368 8.18887 10.4837 7.68654 10.623C6.56315 10.9342 5.31555 11.8875 4.46799 12.6147C3.27336 13.6404 2.10796 14.7783 1.22751 16.0844C0.681344 16.8966 -0.00182299 17.8427 3.65525e-06 18.8557C0.0146168 24.9159 1.78647 31.0845 4.84793 36.3215C7.93497 41.602 12.6477 45.8784 18.7159 47.416C25.0817 49.0297 31.7654 47.1483 37.112 43.6262C40.8603 41.1569 44.1026 37.8284 46.7275 34.2249C48.7734 31.4137 50.3735 28.2715 51.5206 25.0009C53.8186 18.4487 54.3118 11.2761 53.835 4.3947V4.39651ZM37.9359 37.6692C37.4353 37.8754 37.6564 37.7886 37.9359 37.6692V37.6692ZM40.7215 35.3736C40.6868 35.4261 40.6521 35.4785 40.6174 35.531C41.2056 34.5722 40.9169 35.0751 40.7215 35.3736ZM41.8138 33.2842C41.7974 33.3204 41.7809 33.3584 41.7682 33.3946C41.7773 33.3711 41.7937 33.3331 41.8138 33.2842ZM41.9545 32.9713C41.9472 32.9857 41.9399 33.002 41.9326 33.0165C42.0403 32.7777 42.1298 32.5878 41.9545 32.9713Z" fill="white"/>
</svg>
