<svg xmlns="http://www.w3.org/2000/svg" xmlns:xlink="http://www.w3.org/1999/xlink">
    <defs>
        <clipPath id="clip0_1365_63379">
            <path transform="translate(0 .5)" d="M0 0h301v45H0z" />
        </clipPath>
    </defs>
    <symbol id="icon-facebook" viewBox="0 0 15 32">
        <path
            d="M14.66 10.216H9.667V6.94c0-1.23.815-1.516 1.39-1.516h3.523V.019L9.727 0C4.341 0 3.115 4.032 3.115 6.612v3.604H0v5.57h3.115V31.55h6.552V15.786h4.421l.572-5.57z"
            fill-rule="evenodd" />
    </symbol>
    <symbol id="icon-instagram" viewBox="0 0 20 20">
        <path
            d="M5.8 0h8.4C17.4 0 20 2.6 20 5.8v8.4a5.8 5.8 0 01-5.8 5.8H5.8C2.6 20 0 17.4 0 14.2V5.8A5.8 5.8 0 015.8 0zm-.2 2A3.6 3.6 0 002 5.6v8.8C2 16.39 3.61 18 5.6 18h8.8a3.6 3.6 0 003.6-3.6V5.6C18 3.61 16.39 2 14.4 2H5.6zm9.65 1.5a1.25 1.25 0 110 2.5 1.25 1.25 0 010-2.5zM10 5a5 5 0 110 10 5 5 0 010-10zm0 2a3 3 0 100 6 3 3 0 000-6z"
            fill-rule="evenodd" />
    </symbol>
    <symbol id="icon-mail" viewBox="0 0 28 21">
        <path
            d="M13.88 11.82c.253 0 .502-.06.747-.18s.502-.31.77-.572l10.364-9.76c-.482-.373-1.3-.56-2.455-.56H4.168c-1.043 0-1.782.18-2.217.538l10.399 9.782c.269.261.526.452.77.572.246.12.499.18.76.18zM.694 18.773l8.644-8.11L.741 2.633c-.253.396-.38 1.031-.38 1.906v12.406c0 .838.111 1.447.333 1.829zm26.336-.011c.221-.382.332-.987.332-1.818V4.54c0-.867-.127-1.495-.38-1.884l-8.573 8.009 8.62 8.099zm-3.475 1.985c1.076 0 1.846-.198 2.313-.594l-8.799-8.267-.676.65c-.822.748-1.66 1.122-2.513 1.122-.87 0-1.712-.374-2.526-1.122l-.688-.64-8.775 8.257c.506.396 1.344.594 2.514.594h19.15z"
            fill-rule="nonzero" />
    </symbol>
    <symbol id="icon-menu" viewBox="0 0 20 13">
        <path d="M20 12v1H0v-1h20zm0-6v1H0V6h20zm0-6v1H0V0h20z" fill-rule="evenodd" />
    </symbol>
    <symbol id="icon-ok" viewBox="0 0 19 32">
        <path
            d="M9.25 4.83a3.416 3.416 0 013.413 3.414c0 1.88-1.53 3.41-3.413 3.41a3.417 3.417 0 01-3.413-3.41A3.418 3.418 0 019.25 4.83zm0 11.654c4.547 0 8.243-3.696 8.243-8.24C17.493 3.698 13.797 0 9.25 0 4.705 0 1.008 3.698 1.008 8.244c0 4.544 3.697 8.24 8.242 8.24zm3.335 6.724a15.434 15.434 0 004.786-1.983 2.415 2.415 0 00.757-3.33 2.413 2.413 0 00-3.33-.76 10.465 10.465 0 01-11.097 0 2.412 2.412 0 00-3.33.76 2.414 2.414 0 00.757 3.33c1.49.935 3.108 1.6 4.786 1.983l-4.608 4.608a2.415 2.415 0 003.417 3.414l4.526-4.528 4.53 4.528c.942.943 2.47.943 3.414 0a2.413 2.413 0 000-3.414l-4.608-4.608z"
            fill-rule="evenodd" />
    </symbol>
    <!-- <symbol id="icon-search" viewBox="0 0 40 40">
        <path
            d="M39.544 37.345l-9.762-9.762a16.757 16.757 0 003.889-10.747C33.67 7.553 26.118 0 16.835 0 7.552 0 0 7.553 0 16.836 0 26.119 7.552 33.67 16.835 33.67c4.083 0 7.83-1.462 10.748-3.889l9.762 9.762a1.55 1.55 0 001.1.456 1.555 1.555 0 001.1-2.655zM3.11 16.835C3.11 9.269 9.267 3.11 16.835 3.11S30.56 9.268 30.56 16.836c0 7.568-6.157 13.724-13.725 13.724S3.11 24.404 3.11 16.836z"
            fill-rule="nonzero" />
    </symbol> -->
    <symbol id="icon-telegram" viewBox="0 0 32 27">
        <path
            d="M29.84.177L1.494 11.11c-1.935.777-1.923 1.856-.353 2.337l7.07 2.206 2.705 8.294c.329.907.166 1.267 1.12 1.267.735 0 1.061-.335 1.471-.735.26-.255 1.808-1.76 3.535-3.438l7.353 5.433c1.353.746 2.33.36 2.667-1.257L31.89 2.47c.494-1.981-.756-2.88-2.05-2.293zM9.32 15.147L25.255 5.092c.795-.482 1.525-.223.926.309l-13.644 12.31-.532 5.667-2.685-8.233z"
            fill-rule="evenodd" />
    </symbol>
    <symbol id="icon-tshirt" viewBox="0 0 40 35">
        <path fill-rule="evenodd"
            d="M28.643 35H11.357c-1.1 0-1.992-.873-1.992-1.95V15.66l-1.114 1.09c-.374.366-.881.57-1.41.57a2.019 2.019 0 01-1.41-.57L.583 12.001a1.921 1.921 0 010-2.756L9.447.57a2.038 2.038 0 011.66-.555c.082-.01.166-.016.25-.016h2.465c.675 0 1.306.335 1.673.89.784 1.185 2.552 1.95 4.505 1.95 1.954 0 3.723-.765 4.507-1.95.367-.555.997-.89 1.673-.89h2.465c.084 0 .168.005.25.016a2.02 2.02 0 011.66.556l8.862 8.673a1.921 1.921 0 010 2.756l-4.847 4.747c-.373.366-.88.572-1.409.572a2.011 2.011 0 01-1.41-.57l-1.115-1.092V33.05c0 1.078-.892 1.95-1.993 1.95z" />
    </symbol>
    <symbol id="icon-twitter" viewBox="0 0 32 26">
        <path
            d="M31.528 3.033a12.87 12.87 0 01-3.715 1.018A6.48 6.48 0 0030.657.472a12.948 12.948 0 01-4.107 1.57 6.468 6.468 0 00-11.021 5.9A18.366 18.366 0 012.194 1.184a6.435 6.435 0 00-.875 3.252A6.465 6.465 0 004.197 9.82a6.45 6.45 0 01-2.93-.81v.082a6.473 6.473 0 005.189 6.343 6.503 6.503 0 01-2.922.11 6.475 6.475 0 006.042 4.492 12.976 12.976 0 01-8.033 2.77c-.522 0-1.037-.031-1.543-.091a18.304 18.304 0 009.916 2.906c11.898 0 18.403-9.856 18.403-18.404 0-.28-.005-.56-.018-.838a13.1 13.1 0 003.227-3.347z"
            fill-rule="evenodd" />
    </symbol>
    <symbol id="icon-up" viewBox="0 0 18 11">
        <path d="M2.123 11L9 4.198 15.877 11 18 8.9 9 0 0 8.9z" fill-rule="nonzero" />
    </symbol>
    <deepl-alert xmlns="" />
    <deepl-alert xmlns="" />
    <deepl-alert xmlns="" />
</svg>